<svg width="48" height="48" viewBox="0 0 48 48" fill="none" xmlns="http://www.w3.org/2000/svg">
<rect width="48" height="48" fill="#101010"/>
<rect x="26" y="37" width="20" height="20" rx="10" transform="rotate(180 26 37)" fill="#009952"/>
<path d="M16.6314 32L11.8926 32L11.8926 21.5435L16.9719 21.5435C18.2535 21.5624 19.1616 21.9336 19.696 22.6572C20.0176 23.1018 20.1784 23.6338 20.1784 24.2534C20.1784 24.8918 20.0176 25.405 19.696 25.7928C19.5163 26.0103 19.2514 26.2089 18.9014 26.3887C19.4359 26.5826 19.8378 26.89 20.1074 27.3109C20.3817 27.7318 20.5189 28.2426 20.5189 28.8432C20.5189 29.4627 20.3628 30.0184 20.0507 30.5103C19.852 30.8366 19.6037 31.1109 19.3058 31.3332C18.97 31.5886 18.5728 31.7635 18.114 31.8581C17.66 31.9527 17.1658 32 16.6314 32ZM16.5817 27.396L13.9782 27.396L13.9782 30.1839L16.5462 30.1839C17.005 30.1839 17.362 30.1225 17.6174 29.9995C18.0809 29.7725 18.3126 29.3374 18.3126 28.6942C18.3126 28.1503 18.088 27.7767 17.6387 27.5734C17.3881 27.4598 17.0357 27.4007 16.5817 27.396ZM17.6671 25.4026C17.9508 25.2323 18.0927 24.9273 18.0927 24.4875C18.0927 24.0003 17.9036 23.6788 17.5252 23.5227C17.1989 23.4139 16.7827 23.3595 16.2767 23.3595L13.9782 23.3595L13.9782 25.6651L16.5462 25.6651C17.005 25.6651 17.3786 25.5776 17.6671 25.4026Z" fill="white"/>
<rect x="22" y="11" width="20" height="20" rx="10" fill="#D82233"/>
<path d="M32.6314 26H27.8926V15.5435H32.9719C34.2535 15.5624 35.1616 15.9336 35.696 16.6572C36.0176 17.1018 36.1784 17.6338 36.1784 18.2534C36.1784 18.8918 36.0176 19.405 35.696 19.7928C35.5163 20.0103 35.2514 20.2089 34.9014 20.3887C35.4359 20.5826 35.8378 20.89 36.1074 21.3109C36.3817 21.7318 36.5189 22.2426 36.5189 22.8432C36.5189 23.4627 36.3628 24.0184 36.0507 24.5103C35.852 24.8366 35.6037 25.1109 35.3058 25.3332C34.97 25.5885 34.5728 25.7635 34.114 25.8581C33.66 25.9527 33.1658 26 32.6314 26ZM32.5817 21.396H29.9782V24.1839H32.5462C33.005 24.1839 33.362 24.1225 33.6174 23.9995C34.0809 23.7725 34.3126 23.3374 34.3126 22.6942C34.3126 22.1503 34.088 21.7767 33.6387 21.5734C33.3881 21.4598 33.0357 21.4007 32.5817 21.396ZM33.6671 19.4026C33.9508 19.2323 34.0927 18.9273 34.0927 18.4875C34.0927 18.0003 33.9036 17.6788 33.5252 17.5227C33.1989 17.4139 32.7827 17.3595 32.2767 17.3595H29.9782V19.6651H32.5462C33.005 19.6651 33.3786 19.5776 33.6671 19.4026Z" fill="white"/>
</svg>
