<svg width="24" height="24" viewBox="0 0 24 24" fill="none" xmlns="http://www.w3.org/2000/svg">
<path d="M19.1493 8.70031V9.47474C19.1493 10.4043 19.4133 11.3129 19.9105 12.0862L21.1294 13.9816C22.2415 15.7131 21.3923 18.0661 19.4573 18.6128C14.4012 20.0447 9.04682 20.0447 3.9907 18.6128C2.05572 18.0661 1.20649 15.7131 2.31864 13.9816L3.53749 12.0862C4.03604 11.3065 4.3006 10.4002 4.29982 9.47474V8.70031C4.29982 4.44754 7.62415 1 11.724 1C15.8239 1 19.1493 4.44754 19.1493 8.70031Z" fill="currentColor"/>
<path d="M6.49103 19.2002C6.85047 20.3048 7.55024 21.2673 8.49013 21.9498C9.43002 22.6324 10.5618 23 11.7234 23C12.885 23 14.0168 22.6324 14.9566 21.9498C15.8965 21.2673 16.5963 20.3048 16.9558 19.2002C13.4961 19.8493 9.95177 19.8493 6.49103 19.2002Z" fill="currentColor"/>
</svg>
