<svg width="37" height="22" viewBox="0 0 37 22" fill="none" xmlns="http://www.w3.org/2000/svg">
<g clip-path="url(#clip0_15_20)">
<rect x="20.5" y="21" width="20" height="20" rx="10" transform="rotate(180 20.5 21)" fill="#009952"/>
<path d="M11.1314 16L6.39258 16L6.39258 5.54346L11.4719 5.54346C12.7535 5.56238 13.6616 5.93363 14.196 6.65722C14.5176 7.10178 14.6784 7.63383 14.6784 8.25337C14.6784 8.89183 14.5176 9.40496 14.196 9.79276C14.0163 10.0103 13.7514 10.2089 13.4014 10.3887C13.9359 10.5826 14.3378 10.89 14.6074 11.3109C14.8817 11.7318 15.0189 12.2426 15.0189 12.8432C15.0189 13.4627 14.8628 14.0184 14.5507 14.5103C14.352 14.8366 14.1037 15.1109 13.8058 15.3332C13.47 15.5886 13.0728 15.7635 12.614 15.8581C12.16 15.9527 11.6658 16 11.1314 16ZM11.0817 11.396L8.47821 11.396L8.47821 14.1839L11.0462 14.1839C11.505 14.1839 11.862 14.1225 12.1174 13.9995C12.5809 13.7725 12.8126 13.3374 12.8126 12.6942C12.8126 12.1503 12.588 11.7767 12.1387 11.5734C11.8881 11.4598 11.5357 11.4007 11.0817 11.396ZM12.1671 9.40259C12.4508 9.23234 12.5927 8.9273 12.5927 8.48747C12.5927 8.00035 12.4036 7.67875 12.0252 7.52269C11.6989 7.41391 11.2827 7.35952 10.7767 7.35952L8.47821 7.35952L8.47821 9.66507L11.0462 9.66507C11.505 9.66507 11.8786 9.57758 12.1671 9.40259Z" fill="white"/>
<rect x="16.5" y="1" width="20" height="20" rx="10" fill="#D82233"/>
<path d="M27.1314 16H22.3926V5.54346H27.4719C28.7535 5.56238 29.6616 5.93363 30.196 6.65722C30.5176 7.10177 30.6784 7.63382 30.6784 8.25337C30.6784 8.89182 30.5176 9.40496 30.196 9.79276C30.0163 10.0103 29.7514 10.2089 29.4014 10.3887C29.9359 10.5826 30.3378 10.89 30.6074 11.3109C30.8817 11.7318 31.0189 12.2426 31.0189 12.8432C31.0189 13.4627 30.8628 14.0184 30.5507 14.5103C30.352 14.8366 30.1037 15.1109 29.8058 15.3332C29.47 15.5885 29.0728 15.7635 28.614 15.8581C28.16 15.9527 27.6658 16 27.1314 16ZM27.0817 11.396H24.4782V14.1839H27.0462C27.505 14.1839 27.862 14.1225 28.1174 13.9995C28.5809 13.7725 28.8126 13.3374 28.8126 12.6942C28.8126 12.1503 28.588 11.7767 28.1387 11.5734C27.8881 11.4598 27.5357 11.4007 27.0817 11.396ZM28.1671 9.40259C28.4508 9.23234 28.5927 8.92729 28.5927 8.48747C28.5927 8.00035 28.4036 7.67875 28.0252 7.52268C27.6989 7.41391 27.2827 7.35952 26.7767 7.35952H24.4782V9.66507H27.0462C27.505 9.66507 27.8786 9.57758 28.1671 9.40259Z" fill="white"/>
</g>
<defs>
<clipPath id="clip0_15_20">
<rect width="37" height="22" fill="white"/>
</clipPath>
</defs>
</svg>
