<svg width="1024" height="1024" viewBox="0 0 1024 1024" fill="none" xmlns="http://www.w3.org/2000/svg">
<rect width="1024" height="1024" fill="#101010"/>
<g transform="translate(362, 216) scale(21.33)">
<rect x="5.5" y="21" width="20" height="20" rx="10" transform="rotate(180 15.5 31)" fill="#009952"/>
<path d="M6.1314 26L1.39258 26L1.39258 15.5435L6.4719 15.5435C7.75349 15.5624 8.66162 15.9336 9.19629 16.6572C9.51758 17.1018 9.67822 17.6338 9.67822 18.2534C9.67822 18.8918 9.51758 19.405 9.19629 19.7928C9.01631 20.0103 8.75137 20.2089 8.40146 20.3887C8.93589 20.5826 9.33777 20.89 9.6074 21.3109C9.88171 21.7318 10.0189 22.2426 10.0189 22.8432C10.0189 23.4627 9.86279 24.0184 9.55066 24.5103C9.35205 24.8366 9.10371 25.1109 8.80566 25.3332C8.46997 25.5886 8.07275 25.7635 7.61401 25.8581C7.16003 25.9527 6.66577 26 6.1314 26ZM6.08167 21.396L3.47821 21.396L3.47821 24.1839L6.04619 24.1839C6.50494 24.1839 6.86198 24.1225 7.11743 23.9995C7.58093 23.7725 7.81268 23.3374 7.81268 22.6942C7.81268 22.1503 7.58804 21.7767 7.13877 21.5734C6.8881 21.4598 6.53572 21.4007 6.08167 21.396ZM7.16712 19.4026C7.45076 19.2323 7.59268 18.9273 7.59268 18.4875C7.59268 18.0003 7.40359 17.6788 7.02521 17.5227C6.69888 17.4139 6.28271 17.3595 5.7767 17.3595L3.47821 17.3595L3.47821 19.6651L6.04619 19.6651C6.50494 19.6651 6.87856 19.5776 7.16712 19.4026Z" fill="white"/>
<rect x="11.5" y="5" width="20" height="20" rx="10" fill="#D82233"/>
<path d="M22.1314 20H17.3926V9.54346H22.4719C23.7535 9.56238 24.6616 9.93363 25.196 10.6572C25.5176 11.1018 25.6784 11.6338 25.6784 12.2534C25.6784 12.8918 25.5176 13.405 25.196 13.7928C25.0163 14.0103 24.7514 14.2089 24.4014 14.3887C24.9359 14.5826 25.3378 14.89 25.6074 15.3109C25.8817 15.7318 26.0189 16.2426 26.0189 16.8432C26.0189 17.4627 25.8628 18.0184 25.5507 18.5103C25.352 18.8366 25.1037 19.1109 24.8058 19.3332C24.47 19.5885 24.0728 19.7635 23.614 19.8581C23.16 19.9527 22.6658 20 22.1314 20ZM22.0817 15.396H19.4782V18.1839H22.0462C22.505 18.1839 22.862 18.1225 23.1174 17.9995C23.5809 17.7725 23.8126 17.3374 23.8126 16.6942C23.8126 16.1503 23.588 15.7767 23.1387 15.5734C22.8881 15.4598 22.5357 15.4007 22.0817 15.396ZM23.1671 13.4026C23.4508 13.2323 23.5927 12.9273 23.5927 12.4875C23.5927 12.0003 23.4036 11.6788 23.0252 11.5227C22.6989 11.4139 22.2827 11.3595 21.7767 11.3595H19.4782V13.6651H22.0462C22.505 13.6651 22.8786 13.5776 23.1671 13.4026Z" fill="white"/>
</g>
</svg>
