<svg width="24" height="24" viewBox="0 0 24 24" fill="none" xmlns="http://www.w3.org/2000/svg">
<path d="M11.9973 21C10.0004 20.9997 8.06029 20.3353 6.48243 19.1114C4.90457 17.8874 3.77857 16.1735 3.2817 14.2394C2.78483 12.3053 2.94531 10.2608 3.73787 8.42795C4.53044 6.59506 5.91008 5.0778 7.65959 4.11506C9.40909 3.15231 11.4291 2.79875 13.4016 3.11004C15.3741 3.42132 17.1871 4.37978 18.5551 5.83452C19.9231 7.28925 20.7684 9.15764 20.958 11.1455C21.1476 13.1334 20.6707 15.1279 19.6023 16.815L20.9973 21L16.8123 19.605C15.3727 20.5187 13.7024 21.0026 11.9973 21Z" stroke="white" stroke-width="2" stroke-linecap="round" stroke-linejoin="round"/>
</svg>
